<svg width="119" height="28" viewBox="0 0 119 28" fill="none" xmlns="http://www.w3.org/2000/svg">
<path d="M14 28H4.07871C1.039 28 -0.92977 24.7527 0.447369 22.0105L10.3687 2.25456C11.8783 -0.751518 16.1217 -0.75152 17.6313 2.25456L27.5526 22.0105C28.9298 24.7527 26.961 28 23.9213 28H14Z" fill="#1037AA"/>
<circle cx="22" cy="8" r="8" fill="#FF4B4B"/>
<path d="M22 3.95081V7.95081L24.5 10.4508" stroke="white" stroke-width="2" stroke-linecap="round" stroke-linejoin="round"/>
<path d="M34.504 14.96C34.504 13.928 34.696 13.022 35.08 12.242C35.476 11.462 36.01 10.862 36.682 10.442C37.354 10.022 38.104 9.812 38.932 9.812C39.64 9.812 40.258 9.956 40.786 10.244C41.326 10.532 41.74 10.91 42.028 11.378V9.956H45.106V20H42.028V18.578C41.728 19.046 41.308 19.424 40.768 19.712C40.24 20 39.622 20.144 38.914 20.144C38.098 20.144 37.354 19.934 36.682 19.514C36.01 19.082 35.476 18.476 35.08 17.696C34.696 16.904 34.504 15.992 34.504 14.96ZM42.028 14.978C42.028 14.21 41.812 13.604 41.38 13.16C40.96 12.716 40.444 12.494 39.832 12.494C39.22 12.494 38.698 12.716 38.266 13.16C37.846 13.592 37.636 14.192 37.636 14.96C37.636 15.728 37.846 16.34 38.266 16.796C38.698 17.24 39.22 17.462 39.832 17.462C40.444 17.462 40.96 17.24 41.38 16.796C41.812 16.352 42.028 15.746 42.028 14.978ZM51.4188 20.144C50.5428 20.144 49.7628 19.994 49.0788 19.694C48.3948 19.394 47.8548 18.986 47.4588 18.47C47.0628 17.942 46.8408 17.354 46.7928 16.706H49.8348C49.8708 17.054 50.0328 17.336 50.3208 17.552C50.6088 17.768 50.9628 17.876 51.3828 17.876C51.7668 17.876 52.0608 17.804 52.2648 17.66C52.4808 17.504 52.5888 17.306 52.5888 17.066C52.5888 16.778 52.4388 16.568 52.1388 16.436C51.8388 16.292 51.3528 16.136 50.6808 15.968C49.9608 15.8 49.3608 15.626 48.8808 15.446C48.4008 15.254 47.9868 14.96 47.6388 14.564C47.2908 14.156 47.1168 13.61 47.1168 12.926C47.1168 12.35 47.2728 11.828 47.5848 11.36C47.9088 10.88 48.3768 10.502 48.9888 10.226C49.6128 9.95 50.3508 9.812 51.2028 9.812C52.4628 9.812 53.4528 10.124 54.1728 10.748C54.9048 11.372 55.3248 12.2 55.4328 13.232H52.5888C52.5408 12.884 52.3848 12.608 52.1208 12.404C51.8688 12.2 51.5328 12.098 51.1128 12.098C50.7528 12.098 50.4768 12.17 50.2848 12.314C50.0928 12.446 49.9968 12.632 49.9968 12.872C49.9968 13.16 50.1468 13.376 50.4468 13.52C50.7588 13.664 51.2388 13.808 51.8868 13.952C52.6308 14.144 53.2368 14.336 53.7048 14.528C54.1728 14.708 54.5808 15.008 54.9288 15.428C55.2888 15.836 55.4748 16.388 55.4868 17.084C55.4868 17.672 55.3188 18.2 54.9828 18.668C54.6588 19.124 54.1848 19.484 53.5608 19.748C52.9488 20.012 52.2348 20.144 51.4188 20.144ZM60.4479 11.378C60.7479 10.91 61.1619 10.532 61.6899 10.244C62.2179 9.956 62.8359 9.812 63.5439 9.812C64.3719 9.812 65.1219 10.022 65.7939 10.442C66.4659 10.862 66.9939 11.462 67.3779 12.242C67.7739 13.022 67.9719 13.928 67.9719 14.96C67.9719 15.992 67.7739 16.904 67.3779 17.696C66.9939 18.476 66.4659 19.082 65.7939 19.514C65.1219 19.934 64.3719 20.144 63.5439 20.144C62.8479 20.144 62.2299 20 61.6899 19.712C61.1619 19.424 60.7479 19.052 60.4479 18.596V24.788H57.3699V9.956H60.4479V11.378ZM64.8399 14.96C64.8399 14.192 64.6239 13.592 64.1919 13.16C63.7719 12.716 63.2499 12.494 62.6259 12.494C62.0139 12.494 61.4919 12.716 61.0599 13.16C60.6399 13.604 60.4299 14.21 60.4299 14.978C60.4299 15.746 60.6399 16.352 61.0599 16.796C61.4919 17.24 62.0139 17.462 62.6259 17.462C63.2379 17.462 63.7599 17.24 64.1919 16.796C64.6239 16.34 64.8399 15.728 64.8399 14.96ZM79.0547 14.816C79.0547 15.104 79.0367 15.404 79.0007 15.716H72.0347C72.0827 16.34 72.2807 16.82 72.6287 17.156C72.9887 17.48 73.4267 17.642 73.9427 17.642C74.7107 17.642 75.2447 17.318 75.5447 16.67H78.8207C78.6527 17.33 78.3467 17.924 77.9027 18.452C77.4707 18.98 76.9247 19.394 76.2647 19.694C75.6047 19.994 74.8667 20.144 74.0507 20.144C73.0667 20.144 72.1907 19.934 71.4227 19.514C70.6547 19.094 70.0547 18.494 69.6227 17.714C69.1907 16.934 68.9747 16.022 68.9747 14.978C68.9747 13.934 69.1847 13.022 69.6047 12.242C70.0367 11.462 70.6367 10.862 71.4047 10.442C72.1727 10.022 73.0547 9.812 74.0507 9.812C75.0227 9.812 75.8867 10.016 76.6427 10.424C77.3987 10.832 77.9867 11.414 78.4067 12.17C78.8387 12.926 79.0547 13.808 79.0547 14.816ZM75.9047 14.006C75.9047 13.478 75.7247 13.058 75.3647 12.746C75.0047 12.434 74.5547 12.278 74.0147 12.278C73.4987 12.278 73.0607 12.428 72.7007 12.728C72.3527 13.028 72.1367 13.454 72.0527 14.006H75.9047ZM83.7565 11.63C84.1165 11.078 84.5665 10.646 85.1065 10.334C85.6465 10.01 86.2465 9.848 86.9065 9.848V13.106H86.0605C85.2925 13.106 84.7165 13.274 84.3325 13.61C83.9485 13.934 83.7565 14.51 83.7565 15.338V20H80.6785V9.956H83.7565V11.63ZM89.9257 8.912C89.3857 8.912 88.9417 8.756 88.5937 8.444C88.2577 8.12 88.0897 7.724 88.0897 7.256C88.0897 6.776 88.2577 6.38 88.5937 6.068C88.9417 5.744 89.3857 5.582 89.9257 5.582C90.4537 5.582 90.8857 5.744 91.2217 6.068C91.5697 6.38 91.7437 6.776 91.7437 7.256C91.7437 7.724 91.5697 8.12 91.2217 8.444C90.8857 8.756 90.4537 8.912 89.9257 8.912ZM91.4557 9.956V20H88.3777V9.956H91.4557ZM98.2583 20.144C97.2743 20.144 96.3863 19.934 95.5943 19.514C94.8143 19.094 94.1963 18.494 93.7403 17.714C93.2963 16.934 93.0743 16.022 93.0743 14.978C93.0743 13.946 93.3023 13.04 93.7583 12.26C94.2143 11.468 94.8383 10.862 95.6303 10.442C96.4223 10.022 97.3103 9.812 98.2943 9.812C99.2783 9.812 100.166 10.022 100.958 10.442C101.75 10.862 102.374 11.468 102.83 12.26C103.286 13.04 103.514 13.946 103.514 14.978C103.514 16.01 103.28 16.922 102.812 17.714C102.356 18.494 101.726 19.094 100.922 19.514C100.13 19.934 99.2423 20.144 98.2583 20.144ZM98.2583 17.48C98.8463 17.48 99.3443 17.264 99.7523 16.832C100.172 16.4 100.382 15.782 100.382 14.978C100.382 14.174 100.178 13.556 99.7703 13.124C99.3743 12.692 98.8823 12.476 98.2943 12.476C97.6943 12.476 97.1963 12.692 96.8003 13.124C96.4043 13.544 96.2063 14.162 96.2063 14.978C96.2063 15.782 96.3983 16.4 96.7823 16.832C97.1783 17.264 97.6703 17.48 98.2583 17.48ZM104.535 14.96C104.535 13.928 104.727 13.022 105.111 12.242C105.507 11.462 106.041 10.862 106.713 10.442C107.385 10.022 108.135 9.812 108.963 9.812C109.623 9.812 110.223 9.95 110.763 10.226C111.315 10.502 111.747 10.874 112.059 11.342V6.68H115.137V20H112.059V18.56C111.771 19.04 111.357 19.424 110.817 19.712C110.289 20 109.671 20.144 108.963 20.144C108.135 20.144 107.385 19.934 106.713 19.514C106.041 19.082 105.507 18.476 105.111 17.696C104.727 16.904 104.535 15.992 104.535 14.96ZM112.059 14.978C112.059 14.21 111.843 13.604 111.411 13.16C110.991 12.716 110.475 12.494 109.863 12.494C109.251 12.494 108.729 12.716 108.297 13.16C107.877 13.592 107.667 14.192 107.667 14.96C107.667 15.728 107.877 16.34 108.297 16.796C108.729 17.24 109.251 17.462 109.863 17.462C110.475 17.462 110.991 17.24 111.411 16.796C111.843 16.352 112.059 15.746 112.059 14.978Z" fill="#262626"/>
</svg>
